<?xml version="1.0" encoding="UTF-8"?>
<svg version="1.1" xmlns="http://www.w3.org/2000/svg" width="100" height="100">
<path d="M0 0 C33 0 66 0 100 0 C100 33 100 66 100 100 C67 100 34 100 0 100 C0 67 0 34 0 0 Z " fill="#D68B87" transform="translate(0,0)"/>
<path d="M0 0 C5.83487314 0.97247886 9.31918353 5.50668353 13.375 9.5625 C16.72550445 10.0949664 20.11207893 10.02567477 23.5 10.0625 C24.42554688 10.10375 25.35109375 10.145 26.3046875 10.1875 C32.51455254 10.25766797 35.94296895 9.1886897 40.61669922 5.05273438 C42.46730716 3.48426578 44.12843191 2.47173117 46.375 1.5625 C50.90131579 2.08881579 50.90131579 2.08881579 52.375 3.5625 C52.19864548 6.25332872 51.75664079 8.89101446 51.375 11.5625 C51.045 11.5625 50.715 11.5625 50.375 11.5625 C50.375 9.5825 50.375 7.6025 50.375 5.5625 C45.34456624 7.84871776 45.34456624 7.84871776 41.375 11.5625 C41.045 12.5525 40.715 13.5425 40.375 14.5625 C41.035 14.5625 41.695 14.5625 42.375 14.5625 C43.76438077 16.52397874 45.1010411 18.52416576 46.375 20.5625 C47.035 20.2325 47.695 19.9025 48.375 19.5625 C51.81919134 28.97252278 51.81919134 28.97252278 51.375 33.5625 C52.86 34.0575 52.86 34.0575 54.375 34.5625 C56.375 37.5625 56.375 37.5625 56.1328125 39.82421875 C55.92398438 40.62472656 55.71515625 41.42523438 55.5 42.25 C55.29632813 43.05824219 55.09265625 43.86648437 54.8828125 44.69921875 C54.71523437 45.31410156 54.54765625 45.92898437 54.375 46.5625 C53.735625 46.68625 53.09625 46.81 52.4375 46.9375 C51.756875 47.14375 51.07625 47.35 50.375 47.5625 C49.88 48.5525 49.88 48.5525 49.375 49.5625 C47.60325181 49.47526622 45.83252623 49.36708345 44.0625 49.25 C42.58330078 49.16298828 42.58330078 49.16298828 41.07421875 49.07421875 C38.09940875 48.51025332 37.15803195 47.95551656 35.375 45.5625 C34.6875 43.375 34.6875 43.375 34.375 41.5625 C31.405 41.0675 31.405 41.0675 28.375 40.5625 C28.2203125 41.985625 28.2203125 41.985625 28.0625 43.4375 C27.375 46.5625 27.375 46.5625 24.375 48.5625 C21.34375 48.828125 21.34375 48.828125 17.875 48.8125 C16.7303125 48.81765625 15.585625 48.8228125 14.40625 48.828125 C11.375 48.5625 11.375 48.5625 8.375 46.5625 C7.6875 43.4375 7.6875 43.4375 7.375 40.5625 C6.24320313 40.35753906 5.11140625 40.15257812 3.9453125 39.94140625 C2.46351239 39.66943028 0.98174315 39.39728613 -0.5 39.125 C-1.24636719 38.99029297 -1.99273437 38.85558594 -2.76171875 38.71679688 C-8.3984375 37.67578125 -8.3984375 37.67578125 -10.625 36.5625 C-10.07791273 39.09994315 -10.07791273 39.09994315 -8.625 41.5625 C-4.14488914 43.02114074 -0.2004644 42.38608359 4.375 41.5625 C3.375 44.5625 3.375 44.5625 0.5 46.25 C-2.625 47.5625 -2.625 47.5625 -5.625 47.5625 C-5.625 48.2225 -5.625 48.8825 -5.625 49.5625 C-2.655 49.5625 0.315 49.5625 3.375 49.5625 C-1.375 54.4375 -1.375 54.4375 -3.625 55.5625 C-2.965 55.5625 -2.305 55.5625 -1.625 55.5625 C-0.965 56.5525 -0.305 57.5425 0.375 58.5625 C5.325 58.0675 5.325 58.0675 10.375 57.5625 C9.715 59.5425 9.055 61.5225 8.375 63.5625 C9.035 63.5625 9.695 63.5625 10.375 63.5625 C9.715 65.2125 9.055 66.8625 8.375 68.5625 C9.035 69.2225 9.695 69.8825 10.375 70.5625 C3.23419718 69.89304974 -3.17359247 64.93037379 -7.625 59.5625 C-8.75 56.625 -8.75 56.625 -9.625 53.5625 C-10.16125 52.61375 -10.6975 51.665 -11.25 50.6875 C-13.01641701 46.67291589 -12.85008455 43.9141346 -12.625 39.5625 C-13.285 39.2325 -13.945 38.9025 -14.625 38.5625 C-14.17125 38.0675 -13.7175 37.5725 -13.25 37.0625 C-9.86321595 31.852063 -9.56620905 26.30109131 -9.25 20.25 C-8.82568741 13.63072357 -7.78637682 1.66850932 0 0 Z " fill="#AD835B" transform="translate(27.625,0.4375)"/>
<path d="M0 0 C25.41 0 50.82 0 77 0 C77 0.66 77 1.32 77 2 C76.16855469 2.39832031 75.33710937 2.79664063 74.48046875 3.20703125 C73.39378906 3.73683594 72.30710937 4.26664062 71.1875 4.8125 C70.10855469 5.33457031 69.02960938 5.85664062 67.91796875 6.39453125 C65.06332109 7.75402123 65.06332109 7.75402123 63.60546875 9.56445312 C60.44024168 12.39467441 55.86555253 11.66294024 51.8125 11.6875 C50.85883545 11.69386475 49.9051709 11.70022949 48.92260742 11.70678711 C43.38976921 11.56210341 39.82560194 11.24031881 35.8125 7.0625 C34.84586852 5.7289719 33.90078056 4.37886475 33 3 C30.29120665 1.64560332 27.99066732 1.93498549 25 2 C24.3490741 3.24735567 23.70448331 4.49801832 23.0625 5.75 C22.70285156 6.44609375 22.34320312 7.1421875 21.97265625 7.859375 C20.10739543 11.96444701 19.85005092 15.70255658 19.625 20.1875 C19.12873879 27.19029711 17.91876907 33.1218464 14 39 C14.33 39.33 14.66 39.66 15 40 C15.3224271 41.55644353 15.60799418 43.12059745 15.875 44.6875 C16.66894278 48.87975849 17.84458478 52.27701007 20 56 C19.360625 56.7425 18.72125 57.485 18.0625 58.25 C16.21666593 60.7111121 15.43930826 62.03466926 15 65 C14.34 65 13.68 65 13 65 C12.7525 65.721875 12.505 66.44375 12.25 67.1875 C11 70 11 70 9.08984375 72.26953125 C6.80328595 75.25701517 5.61618046 77.97965149 4.3125 81.5 C3.68794922 83.15515625 3.68794922 83.15515625 3.05078125 84.84375 C2.14320741 87.5698454 1.48007536 90.1723034 1 93 C0.67 93 0.34 93 0 93 C0 62.31 0 31.62 0 0 Z " fill="#D68A85" transform="translate(0,0)"/>
<path d="M0 0 C1.98 0 3.96 0 6 0 C3.62371351 5.03213609 0.84467413 6.62170542 -4 9 C-4.66 9 -5.32 9 -6 9 C-5.04478968 11.59686484 -5.04478968 11.59686484 -3 14 C-0.24679275 14.54462351 1.9314081 14.78933956 4.6875 14.8125 C5.38939453 14.83763672 6.09128906 14.86277344 6.81445312 14.88867188 C8.54236781 14.94744448 10.2712443 14.9766097 12 15 C12 17.64 12 20.28 12 23 C9.69 23.33 7.38 23.66 5 24 C2.57919742 30.9165788 0.70022388 37.87352969 -1 45 C-0.46084961 44.84152588 0.07830078 44.68305176 0.63378906 44.51977539 C3.40557189 43.91090977 6.02288851 43.78489684 8.859375 43.68359375 C9.97441406 43.64169922 11.08945313 43.59980469 12.23828125 43.55664062 C13.39714844 43.51732422 14.55601563 43.47800781 15.75 43.4375 C16.92433594 43.39431641 18.09867187 43.35113281 19.30859375 43.30664062 C22.20561451 43.20065206 25.10271935 43.09858362 28 43 C28.33 41.35 28.66 39.7 29 38 C29.33 38 29.66 38 30 38 C30 40.64 30 43.28 30 46 C-3 46 -36 46 -70 46 C-70 36.44244086 -67.28370152 27.58474596 -63 19 C-62.34 18.67 -61.68 18.34 -61 18 C-61.309375 19.0725 -61.61875 20.145 -61.9375 21.25 C-63.33429718 26.75793783 -63.64188798 32.34559961 -64 38 C-63.45472656 37.65066406 -62.90945312 37.30132812 -62.34765625 36.94140625 C-56.74880557 33.56295447 -52.52948488 32.31092785 -46 32 C-46.66 28.37 -47.32 24.74 -48 21 C-47.34 21.33 -46.68 21.66 -46 22 C-45.3671875 24.06640625 -45.3671875 24.06640625 -44.875 26.5625 C-44.70742188 27.38878906 -44.53984375 28.21507813 -44.3671875 29.06640625 C-44.24601562 29.70449219 -44.12484375 30.34257813 -44 31 C-43.01257813 30.4946875 -42.02515625 29.989375 -41.0078125 29.46875 C-39.71364824 28.81228987 -38.41937155 28.15605133 -37.125 27.5 C-36.47402344 27.16613281 -35.82304688 26.83226563 -35.15234375 26.48828125 C-30.2265625 24 -30.2265625 24 -28 24 C-27.505 22.515 -27.505 22.515 -27 21 C-27 21.66 -27 22.32 -27 23 C-23.67924984 22.96838142 -23.67924984 22.96838142 -20 22 C-18.26776336 20.05651499 -16.60118397 18.05279996 -15 16 C-13.948125 15.484375 -12.89625 14.96875 -11.8125 14.4375 C-8.78315776 13.28176237 -8.78315776 13.28176237 -8 10.4375 C-7 8 -7 8 -3.875 6.6875 C-2.92625 6.460625 -1.9775 6.23375 -1 6 C-1.495 4.515 -1.495 4.515 -2 3 C-0.68 3 0.64 3 2 3 C2.33 2.34 2.66 1.68 3 1 C2.01 0.67 1.02 0.34 0 0 Z " fill="#374244" transform="translate(70,54)"/>
<path d="M0 0 C0.94875 0.04125 1.8975 0.0825 2.875 0.125 C2.875 0.455 2.875 0.785 2.875 1.125 C1.946875 1.29 1.01875 1.455 0.0625 1.625 C-3.31669492 3.21520937 -3.67089127 3.45783 -5 6.6875 C-6.81000071 12.67025683 -7.34649662 18.40138787 -4.375 24.0625 C-2.3299123 26.84609159 -1.34886914 28.08875635 1.875 29.125 C-1.35291555 31.2769437 -2.40900809 31.32586443 -6.125 31.125 C-5.795 32.115 -5.465 33.105 -5.125 34.125 C-1.09279092 35.90667378 2.48880023 36.69711301 6.875 36.125 C7.46023437 35.46757813 8.04546875 34.81015625 8.6484375 34.1328125 C11.62093636 31.45234862 13.42510815 31.58876246 17.375 31.625 C18.4990625 31.6146875 19.623125 31.604375 20.78125 31.59375 C24.44340774 32.22260537 25.65053585 33.20266474 27.875 36.125 C27.875 36.785 27.875 37.445 27.875 38.125 C30.185 38.125 32.495 38.125 34.875 38.125 C35.019375 37.485625 35.16375 36.84625 35.3125 36.1875 C35.875 34.125 35.875 34.125 36.875 33.125 C38.39428038 33.05320036 39.91667482 33.04107993 41.4375 33.0625 C42.26378906 33.07152344 43.09007812 33.08054688 43.94140625 33.08984375 C44.57949219 33.10144531 45.21757813 33.11304688 45.875 33.125 C45.875 33.455 45.875 33.785 45.875 34.125 C41.42 34.62 41.42 34.62 36.875 35.125 C36.7821875 37.290625 36.7821875 37.290625 36.6875 39.5 C36.65269531 40.31210937 36.61789063 41.12421875 36.58203125 41.9609375 C36.67871094 42.67507812 36.77539062 43.38921875 36.875 44.125 C40.03740582 46.23327055 41.38157469 46.46317465 45.0625 46.75 C45.96355469 46.82476562 46.86460938 46.89953125 47.79296875 46.9765625 C48.48003906 47.02554688 49.16710937 47.07453125 49.875 47.125 C49.38 48.115 49.38 48.115 48.875 49.125 C47.10325181 49.03776622 45.33252623 48.92958345 43.5625 48.8125 C42.08330078 48.72548828 42.08330078 48.72548828 40.57421875 48.63671875 C37.59940875 48.07275332 36.65803195 47.51801656 34.875 45.125 C34.1875 42.9375 34.1875 42.9375 33.875 41.125 C30.905 40.63 30.905 40.63 27.875 40.125 C27.7203125 41.548125 27.7203125 41.548125 27.5625 43 C26.875 46.125 26.875 46.125 23.875 48.125 C20.84375 48.390625 20.84375 48.390625 17.375 48.375 C16.2303125 48.38015625 15.085625 48.3853125 13.90625 48.390625 C10.875 48.125 10.875 48.125 7.875 46.125 C7.1875 43 7.1875 43 6.875 40.125 C5.74320313 39.92003906 4.61140625 39.71507812 3.4453125 39.50390625 C1.96351239 39.23193028 0.48174315 38.95978613 -1 38.6875 C-1.74636719 38.55279297 -2.49273437 38.41808594 -3.26171875 38.27929688 C-8.8984375 37.23828125 -8.8984375 37.23828125 -11.125 36.125 C-10.57791273 38.66244315 -10.57791273 38.66244315 -9.125 41.125 C-4.64488914 42.58364074 -0.7004644 41.94858359 3.875 41.125 C2.875 44.125 2.875 44.125 0 45.8125 C-3.125 47.125 -3.125 47.125 -6.125 47.125 C-6.125 47.785 -6.125 48.445 -6.125 49.125 C-3.155 49.125 -0.185 49.125 2.875 49.125 C-1.875 54 -1.875 54 -4.125 55.125 C-3.465 55.125 -2.805 55.125 -2.125 55.125 C-1.465 56.115 -0.805 57.105 -0.125 58.125 C4.825 57.63 4.825 57.63 9.875 57.125 C9.215 59.105 8.555 61.085 7.875 63.125 C8.535 63.125 9.195 63.125 9.875 63.125 C9.215 64.775 8.555 66.425 7.875 68.125 C8.535 68.785 9.195 69.445 9.875 70.125 C2.73419718 69.45554974 -3.67359247 64.49287379 -8.125 59.125 C-9.25 56.1875 -9.25 56.1875 -10.125 53.125 C-10.66125 52.17625 -11.1975 51.2275 -11.75 50.25 C-13.51641701 46.23541589 -13.35008455 43.4766346 -13.125 39.125 C-13.785 38.795 -14.445 38.465 -15.125 38.125 C-14.67125 37.63 -14.2175 37.135 -13.75 36.625 C-10.36321595 31.414563 -10.06620905 25.86359131 -9.75 19.8125 C-9.3290491 13.24566601 -8.27304965 0.33092199 0 0 Z " fill="#3C322E" transform="translate(28.125,0.875)"/>
<path d="M0 0 C0.33 0.66 0.66 1.32 1 2 C0.566875 3.175625 0.566875 3.175625 0.125 4.375 C-1.46918066 9.51180435 -1.67116077 14.65203572 -2 20 C-1.45472656 19.65066406 -0.90945312 19.30132812 -0.34765625 18.94140625 C5.25119443 15.56295447 9.47051512 14.31092785 16 14 C15.34 10.37 14.68 6.74 14 3 C14.66 3.33 15.32 3.66 16 4 C16.6328125 6.06640625 16.6328125 6.06640625 17.125 8.5625 C17.29257812 9.38878906 17.46015625 10.21507813 17.6328125 11.06640625 C17.75398438 11.70449219 17.87515625 12.34257813 18 13 C21.465 12.505 21.465 12.505 25 12 C25.66 13.98 26.32 15.96 27 18 C27.144375 17.071875 27.28875 16.14375 27.4375 15.1875 C28 12 28 12 29 9 C34.15563977 6.5999608 38.24363858 5.36040429 44 6 C47.4375 7.5 47.4375 7.5 50 9 C50 10.32 50 11.64 50 13 C49.01 12.67 48.02 12.34 47 12 C47 13.32 47 14.64 47 16 C46.34 16 45.68 16 45 16 C44.505 15.505 44.505 15.505 44 15 C44 15.99 44 16.98 44 18 C41.36 17.67 38.72 17.34 36 17 C35.5824646 17.87483032 35.5824646 17.87483032 35.15649414 18.76733398 C33.03121625 22.87028233 31.1256165 25.71244549 27 28 C20.99824324 28.87587448 15.10827632 28.6604827 9.0625 28.4375 C7.40826893 28.40235184 5.75396623 28.37041897 4.09960938 28.34179688 C0.06462611 28.26501748 -3.96689485 28.14443627 -8 28 C-8.09398873 18.2515178 -4.97059101 9.85334481 -1 1 C-0.67 0.67 -0.34 0.34 0 0 Z " fill="#AE845A" transform="translate(8,72)"/>
<path d="M0 0 C0.3403125 0.8353125 0.3403125 0.8353125 0.6875 1.6875 C5.16280349 9.57255852 13.62771466 13.4883144 22 16 C23 17 23 17 23.0625 19.5625 C23.041875 20.366875 23.02125 21.17125 23 22 C20.89983377 23.17441535 18.79541245 24.33964012 16.6875 25.5 C16.09259766 25.83386719 15.49769531 26.16773437 14.88476562 26.51171875 C12.04171156 28.06825114 10.29339012 29 7 29 C6.01 26.36 5.02 23.72 4 21 C4.33 23.97 4.66 26.94 5 30 C4.26394531 30.18175781 3.52789063 30.36351563 2.76953125 30.55078125 C-2.28697774 31.85331659 -6.63018657 33.03980381 -11 36 C-11.66 36 -12.32 36 -13 36 C-13.62633734 25.87421307 -12.11891684 17.34397751 -6 9 C-5.34 9 -4.68 9 -4 9 C-3.896875 8.2575 -3.79375 7.515 -3.6875 6.75 C-2.95746496 3.82985982 -1.93210602 2.26812446 0 0 Z " fill="#4F6C89" transform="translate(19,56)"/>
<path d="M0 0 C0.82693359 0.00451172 1.65386719 0.00902344 2.50585938 0.01367188 C4.52477146 0.02534189 6.54364574 0.04327282 8.5625 0.0625 C8.61670701 2.62528699 8.65627007 5.18691483 8.6875 7.75 C8.70425781 8.47123047 8.72101563 9.19246094 8.73828125 9.93554688 C8.77702278 14.17774489 8.25474837 17.20663305 6.5625 21.0625 C2.47937687 21.39844186 -1.60403009 21.73080211 -5.6875 22.0625 C-6.84636719 22.15789062 -8.00523438 22.25328125 -9.19921875 22.3515625 C-10.31425781 22.44179687 -11.42929688 22.53203125 -12.578125 22.625 C-13.60454102 22.70878906 -14.63095703 22.79257813 -15.68847656 22.87890625 C-17.93398109 23.02887245 -20.18699329 23.0625 -22.4375 23.0625 C-19.74975296 4.37475296 -19.74975296 4.37475296 -16.4375 1.0625 C-10.93325786 0.02819432 -5.58754854 -0.05853193 0 0 Z " fill="#89868C" transform="translate(91.4375,75.9375)"/>
<path d="M0 0 C2.62571335 0.47549934 5.2505304 0.95522567 7.875 1.4375 C8.99455078 1.63956055 8.99455078 1.63956055 10.13671875 1.84570312 C15.7734375 2.88671875 15.7734375 2.88671875 18 4 C18.66666667 6 19.33333333 8 20 10 C22.70183055 11.35091528 25.11808206 11.33858058 28.125 11.5625 C29.76855469 11.68818359 29.76855469 11.68818359 31.4453125 11.81640625 C32.28835937 11.87699219 33.13140625 11.93757813 34 12 C34 12.33 34 12.66 34 13 C33.236875 13.0825 32.47375 13.165 31.6875 13.25 C28.42379958 14.16080012 27.86904874 15.28138365 26 18 C25.01 18.33 24.02 18.66 23 19 C23.99 19 24.98 19 26 19 C27.23076923 24.41538462 27.23076923 24.41538462 26.0625 27.375 C25.711875 27.91125 25.36125 28.4475 25 29 C26.98 29.33 28.96 29.66 31 30 C31.33 30.99 31.66 31.98 32 33 C28.37 32.34 24.74 31.68 21 31 C21 31.66 21 32.32 21 33 C19.515 32.505 19.515 32.505 18 32 C18.66 31.67 19.32 31.34 20 31 C20.65213292 28.97536745 20.65213292 28.97536745 21 27 C20.34 27 19.68 27 19 27 C19.33 25.35 19.66 23.7 20 22 C17.03 22.33 14.06 22.66 11 23 C10.34 21.68 9.68 20.36 9 19 C7.68 19.33 6.36 19.66 5 20 C6.6415049 16.7169902 9.82902851 15.72962081 13 14 C9.04 14 5.08 14 1 14 C2.32 13.67 3.64 13.34 5 13 C5 12.34 5 11.68 5 11 C5.63808594 10.73445313 6.27617187 10.46890625 6.93359375 10.1953125 C7.75988281 9.84210937 8.58617187 9.48890625 9.4375 9.125 C10.26121094 8.77695312 11.08492187 8.42890625 11.93359375 8.0703125 C14.15746715 7.1755063 14.15746715 7.1755063 15 5 C14.00419922 5.26876953 14.00419922 5.26876953 12.98828125 5.54296875 C5.77745384 7.27988338 5.77745384 7.27988338 1.875 5.875 C1.25625 5.25625 0.6375 4.6375 0 4 C0 2.68 0 1.36 0 0 Z " fill="#B68E6B" transform="translate(17,37)"/>
<path d="M0 0 C0.37125 0.639375 0.7425 1.27875 1.125 1.9375 C3.66827855 4.73510641 5.26339228 4.78442648 9 5 C11.34214207 4.7355646 13.68025766 4.41755362 16 4 C15 7 15 7 12.125 8.6875 C9 10 9 10 6 10 C6 10.66 6 11.32 6 12 C8.97 12 11.94 12 15 12 C10.25 16.875 10.25 16.875 8 18 C8.66 18 9.32 18 10 18 C10.66 18.99 11.32 19.98 12 21 C15.3 20.67 18.6 20.34 22 20 C21.34 21.98 20.68 23.96 20 26 C20.66 26 21.32 26 22 26 C21.01 28.475 21.01 28.475 20 31 C20.66 31.66 21.32 32.32 22 33 C14.85919718 32.33054974 8.45140753 27.36787379 4 22 C2.875 19.0625 2.875 19.0625 2 16 C1.195625 14.576875 1.195625 14.576875 0.375 13.125 C-1.41099892 9.06591154 -1.29392892 6.40893381 -1 2 C-0.67 1.34 -0.34 0.68 0 0 Z " fill="#71533F" transform="translate(16,38)"/>
<path d="M0 0 C0.66 0.33 1.32 0.66 2 1 C2 2.65 2 4.3 2 6 C2.99 6.33 3.98 6.66 5 7 C7 10 7 10 6.79296875 12.2265625 C6.59316406 13.01804687 6.39335938 13.80953125 6.1875 14.625 C5.99542969 15.42164063 5.80335937 16.21828125 5.60546875 17.0390625 C5 19 5 19 4 20 C1.89970014 20.152323 -0.20687139 20.22189372 -2.3125 20.25 C-3.46363281 20.27578125 -4.61476563 20.3015625 -5.80078125 20.328125 C-9.25127484 19.97422822 -10.64232532 19.51293619 -13 17 C-13.52238806 11.04477612 -13.52238806 11.04477612 -12 8 C-11.01 7.67 -10.02 7.34 -9 7 C-9.33 6.34 -9.66 5.68 -10 5 C-6.37 5 -2.74 5 1 5 C0.67 3.35 0.34 1.7 0 0 Z " fill="#664943" transform="translate(77,28)"/>
<path d="M0 0 C0.33 2.97 0.66 5.94 1 9 C1.66 8.67 2.32 8.34 3 8 C4.54023996 7.93049459 6.08334988 7.91547643 7.625 7.9375 C8.85089844 7.95103516 8.85089844 7.95103516 10.1015625 7.96484375 C11.04128906 7.98224609 11.04128906 7.98224609 12 8 C12 8.99 12 9.98 12 11 C12.80872559 10.76228882 12.80872559 10.76228882 13.63378906 10.51977539 C16.40557189 9.91090977 19.02288851 9.78489684 21.859375 9.68359375 C22.97441406 9.64169922 24.08945313 9.59980469 25.23828125 9.55664062 C26.39714844 9.51732422 27.55601563 9.47800781 28.75 9.4375 C29.92433594 9.39431641 31.09867188 9.35113281 32.30859375 9.30664062 C35.20561451 9.20065206 38.10271935 9.09858362 41 9 C41.33 7.35 41.66 5.7 42 4 C42.33 4 42.66 4 43 4 C43 6.64 43 9.28 43 12 C35.6199985 12.06949629 28.2400675 12.12280914 20.85980511 12.15543652 C17.43286777 12.17109574 14.00615423 12.19233804 10.5793457 12.22631836 C6.64016392 12.26513514 2.70107291 12.27970716 -1.23828125 12.29296875 C-3.0852636 12.31619453 -3.0852636 12.31619453 -4.96955872 12.33988953 C-6.11051498 12.34011612 -7.25147125 12.34034271 -8.42700195 12.34057617 C-9.432939 12.34723801 -10.43887604 12.35389984 -11.47529602 12.36076355 C-14 12 -14 12 -17 9 C-15.35 6.69 -13.7 4.38 -12 2 C-10.39125 2.3403125 -10.39125 2.3403125 -8.75 2.6875 C-5.0754468 3.36317294 -5.0754468 3.36317294 -2.625 1.5625 C-1 0 -1 0 0 0 Z " fill="#504B53" transform="translate(57,88)"/>
<path d="M0 0 C0.33 0.66 0.66 1.32 1 2 C0.566875 3.175625 0.566875 3.175625 0.125 4.375 C-1.46918066 9.51180435 -1.67116077 14.65203572 -2 20 C-1.45472656 19.65066406 -0.90945312 19.30132812 -0.34765625 18.94140625 C5.25119443 15.56295447 9.47051512 14.31092785 16 14 C15.34 10.37 14.68 6.74 14 3 C14.66 3.33 15.32 3.66 16 4 C16.59896093 6.30710878 16.95654965 8.61688718 17.33984375 10.96875 C17.55769531 11.6390625 17.77554687 12.309375 18 13 C18.99 13.33 19.98 13.66 21 14 C20.34 14 19.68 14 19 14 C19 17.63 19 21.26 19 25 C17.68 24.01 16.36 23.02 15 22 C15 20.68 15 19.36 15 18 C14.01 18.33 13.02 18.66 12 19 C11.67 18.34 11.34 17.68 11 17 C8.1353789 18.44509904 5.45240837 19.91867974 3 22 C2.32987578 25.2140814 2.32987578 25.2140814 3 28 C-0.63 28 -4.26 28 -8 28 C-8.62086209 18.48011466 -4.84584267 9.57518974 -1 1 C-0.67 0.67 -0.34 0.34 0 0 Z " fill="#414147" transform="translate(8,72)"/>
<path d="M0 0 C0 0.66 0 1.32 0 2 C-0.94875 2.391875 -1.8975 2.78375 -2.875 3.1875 C-6.1567588 4.64667191 -6.1567588 4.64667191 -6.875 7.375 C-8.42441028 10.99029065 -10.77634015 11.90492561 -14.1171875 13.796875 C-16.18346831 14.94189792 -16.18346831 14.94189792 -17.5625 17.3125 C-19 19 -19 19 -22.5 19.5625 C-26 19 -26 19 -27.8125 16.5625 C-28.204375 15.716875 -28.59625 14.87125 -29 14 C-29.66 13.67 -30.32 13.34 -31 13 C-31 12.01 -31 11.02 -31 10 C-27.7 10.33 -24.4 10.66 -21 11 C-21 10.34 -21 9.68 -21 9 C-22.98 9 -24.96 9 -27 9 C-27 5 -27 5 -25.5 3.25 C-25.005 2.8375 -24.51 2.425 -24 2 C-23.505 2.33 -23.01 2.66 -22.5 3 C-16.78029883 5.28788047 -12.12023057 4.23938587 -6.625 2 C-5.37589844 1.443125 -5.37589844 1.443125 -4.1015625 0.875 C-2 0 -2 0 0 0 Z " fill="#C89D77" transform="translate(69,58)"/>
<path d="M0 0 C0.12117188 0.56589844 0.24234375 1.13179688 0.3671875 1.71484375 C0.53476562 2.44832031 0.70234375 3.18179688 0.875 3.9375 C1.11863281 5.03384766 1.11863281 5.03384766 1.3671875 6.15234375 C1.82961523 8.20700294 1.82961523 8.20700294 4 9 C-2.66327905 15.27885911 -7.89755151 16.6742863 -16.72851562 16.44335938 C-21.80637123 16.19362877 -21.80637123 16.19362877 -23 15 C-23.34375 12.64453125 -23.34375 12.64453125 -23 10 C-21.03125 8.19921875 -21.03125 8.19921875 -18.5 6.6875 C-17.6646875 6.17574219 -16.829375 5.66398437 -15.96875 5.13671875 C-15.3190625 4.76160156 -14.669375 4.38648437 -14 4 C-10.17214689 5.91392656 -9.47289539 6.89693427 -8 11 C-6.55314991 9.76946545 -6.55314991 9.76946545 -6.6875 6.0625 C-6.4453125 3.87890625 -6.4453125 3.87890625 -6 2 C-3.81734379 0.31020164 -2.72785349 0 0 0 Z " fill="#AE845B" transform="translate(33,84)"/>
<path d="M0 0 C3.14821886 1.21085341 4.29059122 2.35324995 6.5 5.0390625 C9.92091625 8.50382327 12.85077998 8.77912074 17.6015625 8.8203125 C18.97441406 8.78550781 18.97441406 8.78550781 20.375 8.75 C21.73625 8.78480469 21.73625 8.78480469 23.125 8.8203125 C29.21168239 8.76768989 32.65110105 7.5035972 37.23291016 3.48144531 C39.08956305 1.92491454 40.75410623 0.90421294 43 0 C45.75 0.375 45.75 0.375 48 1 C48 1.33 48 1.66 48 2 C46.845 2.20625 45.69 2.4125 44.5 2.625 C40.09105755 3.694071 37.31094684 5.84778274 33.83203125 8.66796875 C31.61986256 10.27638991 29.72352458 10.82977971 27 11 C27.33 11.639375 27.66 12.27875 28 12.9375 C29.33056928 17.01236841 29.16659199 20.75190425 29 25 C28.01 25 27.02 25 26 25 C21 15 21 15 20.0234375 12.734375 C19.05056499 10.65222691 19.05056499 10.65222691 16 10 C16.495 10.721875 16.99 11.44375 17.5 12.1875 C19.07919285 15.14848659 19.28178312 16.71253029 19 20 C15.53387025 18.56833771 13.92172064 16.90064963 11.75 13.875 C8.6444677 9.71183522 5.25363273 6.11732617 1.50390625 2.53125 C0 1 0 1 0 0 Z " fill="#694739" transform="translate(31,2)"/>
<path d="M0 0 C1.1875 1.75 1.1875 1.75 1.1875 5.75 C-1.1225 6.08 -3.4325 6.41 -5.8125 6.75 C-5.4825 7.08 -5.1525 7.41 -4.8125 7.75 C-3.53375 7.54375 -2.255 7.3375 -0.9375 7.125 C2.92845683 6.56381272 2.92845683 6.56381272 5.1875 8.1875 C5.5175 8.703125 5.8475 9.21875 6.1875 9.75 C0.83891993 12.42429003 -2.81959506 13.32995854 -8.8125 12.75 C-11.75 11.5 -11.75 11.5 -13.8125 9.75 C-14.625 7.5625 -14.625 7.5625 -14.8125 5.75 C-17.1225 6.08 -19.4325 6.41 -21.8125 6.75 C-19.19308783 5.00372522 -17.77425123 4.36277612 -14.8125 3.75 C-17.7825 3.255 -17.7825 3.255 -20.8125 2.75 C-19.04708579 0.54027014 -18.10486707 -0.19071194 -15.2890625 -0.76171875 C-13.87753906 -0.84873047 -13.87753906 -0.84873047 -12.4375 -0.9375 C-11.03371094 -1.03611328 -11.03371094 -1.03611328 -9.6015625 -1.13671875 C-2.09059007 -1.44178626 -2.09059007 -1.44178626 0 0 Z " fill="#E4C299" transform="translate(57.8125,50.25)"/>
<path d="M0 0 C0.70253906 0.00386719 1.40507813 0.00773437 2.12890625 0.01171875 C2.83144531 0.00785156 3.53398438 0.00398438 4.2578125 0 C9.50229247 0.01010497 9.50229247 0.01010497 10.62890625 1.13671875 C10.72714621 2.61320751 10.75864144 4.09447292 10.75390625 5.57421875 C10.75777344 6.77884766 10.75777344 6.77884766 10.76171875 8.0078125 C10.62890625 10.13671875 10.62890625 10.13671875 9.62890625 12.13671875 C4.82538701 13.73789183 -0.14201606 13.95223498 -4.93359375 12.19921875 C-7.26856354 8.8490447 -6.85206856 5.09490492 -6.37109375 1.13671875 C-4.61549433 -0.61888067 -2.33526933 0.00449956 0 0 Z " fill="#9F8562" transform="translate(43.37109375,34.86328125)"/>
<path d="M0 0 C3.27295219 1.75621825 4.10695482 2.95446883 5.5625 6.375 C6.08303576 9.38703214 6.33442535 12.31879965 6.5625 15.375 C2.6025 16.365 -1.3575 17.355 -5.4375 18.375 C-6.45452117 15.3239365 -6.60332083 13.13300939 -6.625 9.9375 C-6.63917969 8.99003906 -6.65335938 8.04257813 -6.66796875 7.06640625 C-6.43078354 4.29656542 -5.9424543 2.69315768 -4.4375 0.375 C-2.4375 -0.625 -2.4375 -0.625 0 0 Z " fill="#7AA5CD" transform="translate(17.4375,70.625)"/>
<path d="M0 0 C0.66 1.32 1.32 2.64 2 4 C5.51071826 8.00957698 9.09246137 10.38096495 13.8125 12.8125 C14.97394531 13.41707031 16.13539062 14.02164063 17.33203125 14.64453125 C18.65267578 15.31548828 18.65267578 15.31548828 20 16 C19.690625 16.598125 19.38125 17.19625 19.0625 17.8125 C17.89790296 20.08956772 17.89790296 20.08956772 17 23 C8.27531837 21.67233106 2.99751024 14.99751024 -3 9 C-2.01 6.03 -1.02 3.06 0 0 Z " fill="#79A4CB" transform="translate(19,56)"/>
<path d="M0 0 C2.66769422 0.15243967 4.44334709 0.44650989 6.375 2.3671875 C7.60348251 3.89547824 8.80289981 5.44700516 10 7 C10.66 7.33 11.32 7.66 12 8 C10.5328827 11.55736507 8.6293581 13.44195167 5.625 15.8125 C4.85414062 16.43769531 4.08328125 17.06289063 3.2890625 17.70703125 C1 19 1 19 -1.2890625 18.69921875 C-1.85367187 18.46847656 -2.41828125 18.23773437 -3 18 C-2.88521587 15.93690624 -2.75773802 13.87451646 -2.625 11.8125 C-2.55539063 10.66394531 -2.48578125 9.51539063 -2.4140625 8.33203125 C-2.02490426 5.20040883 -1.3190149 2.84714191 0 0 Z " fill="#EDADA4" transform="translate(27,5)"/>
<path d="M0 0 C3.875 1.75 3.875 1.75 5 4 C5.04022391 6.3329866 5.04320247 8.66706666 5 11 C5.66 10.67 6.32 10.34 7 10 C7.33 8.68 7.66 7.36 8 6 C12.455 5.505 12.455 5.505 17 5 C18 9 18 9 17 14 C11.06 14.495 11.06 14.495 5 15 C4.34 12.36 3.68 9.72 3 7 C2.443125 7.515625 1.88625 8.03125 1.3125 8.5625 C-1 10 -1 10 -3.625 9.75 C-6 9 -6 9 -8 8 C-8.309375 8.639375 -8.61875 9.27875 -8.9375 9.9375 C-10 12 -10 12 -11 13 C-9.35 13.33 -7.7 13.66 -6 14 C-6 14.33 -6 14.66 -6 15 C-7.98 15.33 -9.96 15.66 -12 16 C-11.34 16.66 -10.68 17.32 -10 18 C-12.64 18 -15.28 18 -18 18 C-17.60167969 17.54109375 -17.20335937 17.0821875 -16.79296875 16.609375 C-14.08857938 13.47728415 -11.42008229 10.36122541 -9 7 C-6.36 7.33 -3.72 7.66 -1 8 C-1.33 6.35 -1.66 4.7 -2 3 C-1.34 3.33 -0.68 3.66 0 4 C0 4.66 0 5.32 0 6 C0.66 6 1.32 6 2 6 C1.34 4.02 0.68 2.04 0 0 Z " fill="#39343C" transform="translate(53,82)"/>
<path d="M0 0 C0.66 0.66 1.32 1.32 2 2 C4.56916657 2.30599063 7.04758384 2.51087087 9.625 2.625 C10.68460938 2.68300781 10.68460938 2.68300781 11.765625 2.7421875 C13.50998524 2.83647724 15.25495691 2.91932891 17 3 C17 5.64 17 8.28 17 11 C15.906875 11.0825 14.81375 11.165 13.6875 11.25 C9.96723336 11.63689209 9.96723336 11.63689209 8.0625 14.0625 C7.711875 14.701875 7.36125 15.34125 7 16 C6.67 14.35 6.34 12.7 6 11 C3.36 10.34 0.72 9.68 -2 9 C-1.67 8.34 -1.34 7.68 -1 7 C-1.66 6.67 -2.32 6.34 -3 6 C-3 5.34 -3 4.68 -3 4 C-2.01 4 -1.02 4 0 4 C0 2.68 0 1.36 0 0 Z " fill="#37353C" transform="translate(65,66)"/>
<path d="M0 0 C0.94875 0.04125 1.8975 0.0825 2.875 0.125 C2.875 0.455 2.875 0.785 2.875 1.125 C1.4828125 1.3725 1.4828125 1.3725 0.0625 1.625 C-3.31669492 3.21520937 -3.67089127 3.45783 -5 6.6875 C-6.81000071 12.67025683 -7.34649662 18.40138787 -4.375 24.0625 C-2.3299123 26.84609159 -1.34886914 28.08875635 1.875 29.125 C-1.35291555 31.2769437 -2.40900809 31.32586443 -6.125 31.125 C-5.795 32.445 -5.465 33.765 -5.125 35.125 C-6.775 34.795 -8.425 34.465 -10.125 34.125 C-9.57994373 0.38319775 -9.57994373 0.38319775 0 0 Z " fill="#704E3B" transform="translate(28.125,0.875)"/>
<path d="M0 0 C0.66 0 1.32 0 2 0 C2.66 0.99 3.32 1.98 4 3 C7.3 2.67 10.6 2.34 14 2 C13.34 3.98 12.68 5.96 12 8 C12.66 8 13.32 8 14 8 C13.34 9.65 12.68 11.3 12 13 C12.66 13.66 13.32 14.32 14 15 C9.06942166 14.53775828 4.7127367 12.21828345 1 9 C0.203125 6.89453125 0.203125 6.89453125 0 5 C0.33 4.67 0.66 4.34 1 4 C0.34 3.67 -0.32 3.34 -1 3 C-0.67 2.01 -0.34 1.02 0 0 Z " fill="#7E614D" transform="translate(24,56)"/>
<path d="M0 0 C0.66 0.33 1.32 0.66 2 1 C2.99 0.67 3.98 0.34 5 0 C5.02698189 1.62490954 5.04638757 3.24994633 5.0625 4.875 C5.07410156 5.77992187 5.08570312 6.68484375 5.09765625 7.6171875 C5 10 5 10 4 12 C1.03 11.505 1.03 11.505 -2 11 C-2 9.35 -2 7.7 -2 6 C-2.66 6 -3.32 6 -4 6 C-4.33 7.32 -4.66 8.64 -5 10 C-6.32 9.34 -7.64 8.68 -9 8 C-8.67 5.69 -8.34 3.38 -8 1 C-5.04152015 0.01384005 -3.0789413 -0.15789443 0 0 Z " fill="#E2D86D" transform="translate(73,35)"/>
<path d="M0 0 C1.98 0 3.96 0 6 0 C3.62371351 5.03213609 0.84467413 6.62170542 -4 9 C-4.66 9 -5.32 9 -6 9 C-5.67 11.31 -5.34 13.62 -5 16 C-5.99 16 -6.98 16 -8 16 C-8 16.66 -8 17.32 -8 18 C-4.7 18 -1.4 18 2 18 C2 18.33 2 18.66 2 19 C-1.96 19.495 -1.96 19.495 -6 20 C-3.69 20.66 -1.38 21.32 1 22 C1 22.66 1 23.32 1 24 C-0.98 24 -2.96 24 -5 24 C-5 24.66 -5 25.32 -5 26 C-6.65 26.33 -8.3 26.66 -10 27 C-11.09028381 20.5531044 -11.70854689 15.33413835 -8.32421875 9.52734375 C-6.2601663 7.14668148 -4.02711267 6.55038412 -1 6 C-1.33 5.01 -1.66 4.02 -2 3 C-0.68 3 0.64 3 2 3 C2.33 2.34 2.66 1.68 3 1 C2.01 0.67 1.02 0.34 0 0 Z " fill="#6D6262" transform="translate(70,54)"/>
<path d="M0 0 C0.33 0 0.66 0 1 0 C1 2.64 1 5.28 1 8 C-4.17780166 8.04954105 -9.35546446 8.08578636 -14.53344727 8.10986328 C-16.29388839 8.11990351 -18.05431291 8.13353844 -19.81469727 8.15087891 C-22.34916285 8.17521436 -24.88340739 8.18650296 -27.41796875 8.1953125 C-28.20149216 8.20563507 -28.98501556 8.21595764 -29.7922821 8.22659302 C-33.97755404 8.22744694 -37.23883731 7.89203832 -41 6 C-39 4 -39 4 -36.8359375 3.8046875 C-35.61777344 3.83949219 -35.61777344 3.83949219 -34.375 3.875 C-33.14910156 3.90207031 -33.14910156 3.90207031 -31.8984375 3.9296875 C-30.95871094 3.96449219 -30.95871094 3.96449219 -30 4 C-30 4.99 -30 5.98 -30 7 C-29.19127441 6.76228882 -29.19127441 6.76228882 -28.36621094 6.51977539 C-25.59442811 5.91090977 -22.97711149 5.78489684 -20.140625 5.68359375 C-19.02558594 5.64169922 -17.91054687 5.59980469 -16.76171875 5.55664062 C-15.60285156 5.51732422 -14.44398437 5.47800781 -13.25 5.4375 C-12.07566406 5.39431641 -10.90132812 5.35113281 -9.69140625 5.30664062 C-6.79438549 5.20065206 -3.89728065 5.09858362 -1 5 C-0.67 3.35 -0.34 1.7 0 0 Z " fill="#727176" transform="translate(99,92)"/>
<path d="M0 0 C-0.33 2.64 -0.66 5.28 -1 8 C-1.33 8 -1.66 8 -2 8 C-2 6.02 -2 4.04 -2 2 C-7.03043376 4.28621776 -7.03043376 4.28621776 -11 8 C-11.33 8.99 -11.66 9.98 -12 11 C-11.34 11 -10.68 11 -10 11 C-8.375 13 -8.375 13 -7 15 C-7.33 15.66 -7.66 16.32 -8 17 C-9.98 15.35 -11.96 13.7 -14 12 C-14 13.65 -14 15.3 -14 17 C-14.99 17 -15.98 17 -17 17 C-17.66 14.36 -18.32 11.72 -19 9 C-8.34214286 -0.49071429 -8.34214286 -0.49071429 0 0 Z " fill="#9B7255" transform="translate(80,4)"/>
<path d="M0 0 C3.3 1.65 6.6 3.3 10 5 C10 6.65 10 8.3 10 10 C9.4740625 9.67773438 8.948125 9.35546875 8.40625 9.0234375 C5.33627017 7.71769933 2.83000375 7.66318812 -0.5 7.625 C-1.6240625 7.59664062 -2.748125 7.56828125 -3.90625 7.5390625 C-7.61265238 8.09127902 -8.59660609 9.236097 -11 12 C-11.66 12 -12.32 12 -13 12 C-12.5 8.6875 -12.5 8.6875 -11 5 C-9.02349779 3.83885831 -7.17679735 3.21933235 -4.97265625 2.60546875 C-2.71167916 2.01444527 -2.71167916 2.01444527 0 0 Z " fill="#D4AA7F" transform="translate(46,26)"/>
<path d="M0 0 C1.98 0 3.96 0 6 0 C7.33333333 2.66666667 8.66666667 5.33333333 10 8 C9.01 8 8.02 8 7 8 C5.23537317 11.08809695 5 12.23312136 5 16 C2.03 16.66 -0.94 17.32 -4 18 C-4 17.34 -4 16.68 -4 16 C-0.535 15.505 -0.535 15.505 3 15 C2.36078035 12.52372901 2.36078035 12.52372901 1 10 C-1.52372901 8.63921965 -1.52372901 8.63921965 -4 8 C-3.2884375 7.13375 -3.2884375 7.13375 -2.5625 6.25 C-1.0515133 4.07417916 -0.45963849 2.57397552 0 0 Z " fill="#A27A56" transform="translate(56,41)"/>
<path d="M0 0 C0.66 0.33 1.32 0.66 2 1 C2 3.97 2 6.94 2 10 C1.319375 9.835 0.63875 9.67 -0.0625 9.5 C-6.51410219 8.40185495 -11.80117371 9.25997858 -18 11 C-18.33 14.3 -18.66 17.6 -19 21 C-19.99 20.01 -20.98 19.02 -22 18 C-22 16.68 -22 15.36 -22 14 C-23.32 14.33 -24.64 14.66 -26 15 C-24.60643954 12.21287908 -22.83494327 11.73536671 -20.0625 10.375 C-19.16660156 9.92898437 -18.27070312 9.48296875 -17.34765625 9.0234375 C-15 8 -15 8 -13 8 C-12.67 7.01 -12.34 6.02 -12 5 C-12 5.66 -12 6.32 -12 7 C-7.33600356 6.87229353 -7.33600356 6.87229353 -3.421875 4.59765625 C-2.21155069 3.11953029 -1.09779097 1.56352047 0 0 Z " fill="#443837" transform="translate(55,70)"/>
<path d="M0 0 C0.99 0.33 1.98 0.66 3 1 C2.34 1 1.68 1 1 1 C-0.26582219 4.86723631 -0.1118765 8.73151262 -0.0625 12.75 C-0.05798828 13.44738281 -0.05347656 14.14476563 -0.04882812 14.86328125 C-0.0371002 16.57555803 -0.01916653 18.28779033 0 20 C-1.98 20.66 -3.96 21.32 -6 22 C-6.33167569 14.62942916 -6.33786595 8.67573189 -3 2 C-2.01 1.34 -1.02 0.68 0 0 Z " fill="#5C81A5" transform="translate(12,70)"/>
<path d="M0 0 C2.4375 1.6875 2.4375 1.6875 4 4 C3.75 6.75 3.75 6.75 3 9 C2.01 9.33 1.02 9.66 0 10 C-0.33 8.68 -0.66 7.36 -1 6 C-1.66 6 -2.32 6 -3 6 C-3 7.65 -3 9.3 -3 11 C-7.875 9.125 -7.875 9.125 -9 8 C-9.29178308 5.22806071 -9.36366316 3.58590175 -7.875 1.1875 C-5.08666183 -0.57844751 -3.23271032 -0.46181576 0 0 Z " fill="#E6DB6F" transform="translate(48,35)"/>
<path d="M0 0 C-0.47986031 5.56890517 -1.29915181 10.67067568 -3 16 C-4.70884005 14.37660195 -6.37446717 12.70680947 -8 11 C-8 10.34 -8 9.68 -8 9 C-8.66 9 -9.32 9 -10 9 C-9.74410214 5.54537888 -8.71373837 4.72618453 -6.125 2.25 C-3 0 -3 0 0 0 Z " fill="#EDAEA5" transform="translate(78,6)"/>
<path d="M0 0 C0.66 0 1.32 0 2 0 C2.03738281 0.75925781 2.07476563 1.51851563 2.11328125 2.30078125 C2.17902344 3.29464844 2.24476563 4.28851563 2.3125 5.3125 C2.39951172 6.79169922 2.39951172 6.79169922 2.48828125 8.30078125 C3.06164127 11.32514595 3.80279602 11.9912961 6 14 C6 14.99 6 15.98 6 17 C3.03 17 0.06 17 -3 17 C-3.40214229 10.83381819 -1.96818336 5.82254243 0 0 Z " fill="#587392" transform="translate(3,83)"/>
<path d="M0 0 C3.375 -0.125 3.375 -0.125 7 0 C9.66315194 2.66315194 9.94426493 4.65344068 10.09765625 8.359375 C10.08605469 9.14828125 10.07445312 9.9371875 10.0625 10.75 C10.05347656 11.54921875 10.04445313 12.3484375 10.03515625 13.171875 C10.02355469 13.77515625 10.01195312 14.3784375 10 15 C9.01 15 8.02 15 7 15 C6.20576139 13.43880578 5.41472877 11.87598036 4.625 10.3125 C3.96371094 9.00732422 3.96371094 9.00732422 3.2890625 7.67578125 C2.07335732 5.15227201 1.00739042 2.61262468 0 0 Z " fill="#7C5944" transform="translate(50,12)"/>
<path d="M0 0 C2.62571335 0.47549934 5.2505304 0.95522567 7.875 1.4375 C8.99455078 1.63956055 8.99455078 1.63956055 10.13671875 1.84570312 C15.7734375 2.88671875 15.7734375 2.88671875 18 4 C18.67939174 5.99571323 19.34561559 7.99594773 20 10 C20.66 10.66 21.32 11.32 22 12 C20.125 11.8125 20.125 11.8125 18 11 C16.8671875 8.44921875 16.8671875 8.44921875 16 6 C15.26394531 6.10699219 14.52789062 6.21398438 13.76953125 6.32421875 C5.81062428 7.30199728 5.81062428 7.30199728 1.8125 5.8125 C1.214375 5.214375 0.61625 4.61625 0 4 C0 2.68 0 1.36 0 0 Z " fill="#906A4C" transform="translate(17,37)"/>
<path d="M0 0 C-0.33 0.66 -0.66 1.32 -1 2 C-3.32156597 2.40729228 -5.6568787 2.74438677 -8 3 C-8 3.66 -8 4.32 -8 5 C-10.57213134 6.61949011 -11.67669159 7.04408751 -14.75 6.625 C-15.4925 6.41875 -16.235 6.2125 -17 6 C-17.33 5.01 -17.66 4.02 -18 3 C-19.32 3.33 -20.64 3.66 -22 4 C-21 2 -21 2 -17.75 0.875 C-11.90962021 -0.4891763 -5.957937 -0.16347998 0 0 Z " fill="#BF9F7F" transform="translate(44,53)"/>
<path d="M0 0 C1.0725 0.350625 2.145 0.70125 3.25 1.0625 C3.25 1.7225 3.25 2.3825 3.25 3.0625 C0.61 2.7325 -2.03 2.4025 -4.75 2.0625 C-5.01554687 2.64515625 -5.28109375 3.2278125 -5.5546875 3.828125 C-7.57947595 7.61302366 -10.23365586 10.59357752 -13.75 13.0625 C-16.67474935 13.64949158 -18.74131868 13.43198718 -21.75 13.0625 C-21.04488281 12.50175781 -20.33976562 11.94101563 -19.61328125 11.36328125 C-17.69534708 9.82213087 -15.79680145 8.25655419 -13.91796875 6.66796875 C-4.88334907 -0.66155888 -4.88334907 -0.66155888 0 0 Z " fill="#906B4C" transform="translate(48.75,86.9375)"/>
<path d="M0 0 C-0.33 1.32 -0.66 2.64 -1 4 C0.65 3.67 2.3 3.34 4 3 C4 3.99 4 4.98 4 6 C4.66 6.33 5.32 6.66 6 7 C5.26394531 7.03738281 4.52789062 7.07476562 3.76953125 7.11328125 C-3.60412658 7.52984473 -3.60412658 7.52984473 -10 11 C-9.5020163 7.26512223 -9.12508244 5.18762365 -7 2 C-4.36034793 0.38214873 -3.15987325 0 0 0 Z " fill="#D2A77D" transform="translate(72,26)"/>
<path d="M0 0 C1.65 0.33 3.3 0.66 5 1 C5 4 5 4 4 7 C5.98 6.67 7.96 6.34 10 6 C9.67 6.99 9.34 7.98 9 9 C7.8553125 9.2165625 7.8553125 9.2165625 6.6875 9.4375 C3.91827092 9.9632594 3.91827092 9.9632594 1 11 C-1.0625 9.25 -1.0625 9.25 -3 7 C-2.81367553 3.92564622 -1.75085936 2.62628904 0 0 Z " fill="#D6B289" transform="translate(63,49)"/>
<path d="M0 0 C1.32 0.66 2.64 1.32 4 2 C2.375 7.75 2.375 7.75 -1 10 C-3.63434254 9.67873872 -5.62710097 9.18644952 -8 8 C-8.309375 8.639375 -8.61875 9.27875 -8.9375 9.9375 C-10 12 -10 12 -11 13 C-9.35 13.33 -7.7 13.66 -6 14 C-6 14.33 -6 14.66 -6 15 C-7.98 15.33 -9.96 15.66 -12 16 C-11.34 16.66 -10.68 17.32 -10 18 C-12.64 18 -15.28 18 -18 18 C-17.60167969 17.54109375 -17.20335937 17.0821875 -16.79296875 16.609375 C-14.08857938 13.47728415 -11.42008229 10.36122541 -9 7 C-6.36 7.33 -3.72 7.66 -1 8 C-1.33 6.35 -1.66 4.7 -2 3 C-1.34 3.33 -0.68 3.66 0 4 C0 4.66 0 5.32 0 6 C0.66 6 1.32 6 2 6 C1.34 4.02 0.68 2.04 0 0 Z " fill="#574138" transform="translate(53,82)"/>
<path d="M0 0 C0.33 0.66 0.66 1.32 1 2 C0.76410156 2.60328125 0.52820312 3.2065625 0.28515625 3.828125 C0.19105469 4.54484375 0.09695312 5.2615625 0 6 C1.86708644 8.47530816 1.86708644 8.47530816 4.4375 10.75 C5.28183594 11.54921875 6.12617188 12.3484375 6.99609375 13.171875 C7.98802734 14.07679687 7.98802734 14.07679687 9 15 C6 15 6 15 4.25 14.0625 C0.3695763 12.2300777 -3.75068831 12 -8 12 C-6.7260411 9.96166576 -5.38938077 7.96147874 -4 6 C-3.34 6 -2.68 6 -2 6 C-1.855625 5.195625 -1.71125 4.39125 -1.5625 3.5625 C-1 1 -1 1 0 0 Z " fill="#465468" transform="translate(17,59)"/>
<path d="M0 0 C0 2.31 0 4.62 0 7 C-7.92 7.495 -7.92 7.495 -16 8 C-14.68 6.02 -13.36 4.04 -12 2 C-10.39125 2.3403125 -10.39125 2.3403125 -8.75 2.6875 C-5.0754468 3.36317294 -5.0754468 3.36317294 -2.625 1.5625 C-1 0 -1 0 0 0 Z " fill="#587BA2" transform="translate(57,88)"/>
<path d="M0 0 C3.3 0 6.6 0 10 0 C10 1.65 10 3.3 10 5 C11.65 5 13.3 5 15 5 C15 5.33 15 5.66 15 6 C13.35 6 11.7 6 10 6 C10 6.66 10 7.32 10 8 C10.66 8.33 11.32 8.66 12 9 C10.68 9 9.36 9 8 9 C8 8.01 8 7.02 8 6 C4.95613276 5.91773332 2.92824652 6.02391783 0 7 C-1.125 2.25 -1.125 2.25 0 0 Z " fill="#BF9B83" transform="translate(67,49)"/>
<path d="M0 0 C0.33 1.32 0.66 2.64 1 4 C2.69769531 4.30744141 2.69769531 4.30744141 4.4296875 4.62109375 C5.91148761 4.89306972 7.39325685 5.16521387 8.875 5.4375 C9.62136719 5.57220703 10.36773437 5.70691406 11.13671875 5.84570312 C16.7734375 6.88671875 16.7734375 6.88671875 19 8 C19 8.66 19 9.32 19 10 C18.29875 9.86722656 17.5975 9.73445313 16.875 9.59765625 C11.2595442 8.55238798 5.67566491 7.6425281 0 7 C-0.33 7.66 -0.66 8.32 -1 9 C-1.99 8.67 -2.98 8.34 -4 8 C-3.2884375 7.13375 -3.2884375 7.13375 -2.5625 6.25 C-1.0515133 4.07417916 -0.45963849 2.57397552 0 0 Z " fill="#292123" transform="translate(17,31)"/>
<path d="M0 0 C3.3 0 6.6 0 10 0 C10 0.33 10 0.66 10 1 C7.36 1.33 4.72 1.66 2 2 C4.31 2.66 6.62 3.32 9 4 C9 4.66 9 5.32 9 6 C7.02 6 5.04 6 3 6 C3 6.66 3 7.32 3 8 C1.35 8.33 -0.3 8.66 -2 9 C-2 6.69 -2 4.38 -2 2 C-1.34 2 -0.68 2 0 2 C0 1.34 0 0.68 0 0 Z " fill="#5B5142" transform="translate(62,72)"/>
<path d="M0 0 C2 2 2 2 2.01171875 4.2421875 C1.90472656 5.11101563 1.79773438 5.97984375 1.6875 6.875 C1.58824219 7.73867187 1.48898438 8.60234375 1.38671875 9.4921875 C0.65705128 14.22397047 0.65705128 14.22397047 0 16 C-0.99 16.33 -1.98 16.66 -3 17 C-3.40368295 10.54107286 -2.5915262 5.93891422 0 0 Z " fill="#926D4F" transform="translate(24,4)"/>
<path d="M0 0 C-1 3 -1 3 -3.875 4.6875 C-7 6 -7 6 -10 6 C-10 6.66 -10 7.32 -10 8 C-11.32 8 -12.64 8 -14 8 C-14.33 6.68 -14.66 5.36 -15 4 C-13.68 4 -12.36 4 -11 4 C-10.67 3.01 -10.34 2.02 -10 1 C-3.375 0 -3.375 0 0 0 Z " fill="#785742" transform="translate(32,42)"/>
<path d="M0 0 C0 0.33 0 0.66 0 1 C-1.65 1.33 -3.3 1.66 -5 2 C-5 2.33 -5 2.66 -5 3 C-14.405 3.99 -14.405 3.99 -24 5 C-17.34485622 -1.65514378 -8.98179608 -0.13472694 0 0 Z " fill="#AA835D" transform="translate(51,49)"/>
<path d="M0 0 C5.57142857 5.14285714 5.57142857 5.14285714 6 9 C4.68 9.33 3.36 9.66 2 10 C2.350625 10.598125 2.70125 11.19625 3.0625 11.8125 C4 14 4 14 3 17 C-0.58630554 11.62054169 -1.54756509 8.46126809 -1 2 C-0.67 1.34 -0.34 0.68 0 0 Z " fill="#634436" transform="translate(16,38)"/>
<path d="M0 0 C0.66 0 1.32 0 2 0 C2.66 0.99 3.32 1.98 4 3 C7.3 2.67 10.6 2.34 14 2 C13.34 4.31 12.68 6.62 12 9 C11.34 9 10.68 9 10 9 C9.34 8.01 8.68 7.02 8 6 C4.41642759 5.74984127 4.41642759 5.74984127 1 6 C1 5.34 1 4.68 1 4 C0.34 3.67 -0.32 3.34 -1 3 C-0.67 2.01 -0.34 1.02 0 0 Z " fill="#8D674D" transform="translate(24,56)"/>
<path d="M0 0 C0.66 0.33 1.32 0.66 2 1 C2.4140625 4.16015625 2.4140625 4.16015625 2.625 8.0625 C2.69976562 9.35285156 2.77453125 10.64320312 2.8515625 11.97265625 C2.90054688 12.97167969 2.94953125 13.97070312 3 15 C2.01 15 1.02 15 0 15 C-1.5912689 10.126739 -2.21192221 6.19209404 -2 1 C-1.34 0.67 -0.68 0.34 0 0 Z " fill="#323037" transform="translate(58,69)"/>
<path d="M0 0 C0.33 0.66 0.66 1.32 1 2 C0.71125 2.78375 0.4225 3.5675 0.125 4.375 C-1.46918066 9.51180435 -1.67116077 14.65203572 -2 20 C-0.68 19.67 0.64 19.34 2 19 C1.67 20.98 1.34 22.96 1 25 C0.67 24.34 0.34 23.68 0 23 C-0.99 22.67 -1.98 22.34 -3 22 C-4.19886825 13.56882875 -4.47469197 7.4322137 0 0 Z " fill="#31313A" transform="translate(8,72)"/>
<path d="M0 0 C2.31 0 4.62 0 7 0 C6.7834375 0.8353125 6.7834375 0.8353125 6.5625 1.6875 C5.97230872 4.11384195 5.476571 6.54906345 5 9 C2.03 9.66 -0.94 10.32 -4 11 C-4 10.34 -4 9.68 -4 9 C-0.535 8.505 -0.535 8.505 3 8 C2.5359375 6.8553125 2.5359375 6.8553125 2.0625 5.6875 C1.32106407 3.81210323 0.63771783 1.91315348 0 0 Z " fill="#775345" transform="translate(56,48)"/>
<path d="M0 0 C0.99 0.33 1.98 0.66 3 1 C3.144375 1.78375 3.28875 2.5675 3.4375 3.375 C3.87798925 5.96421018 3.87798925 5.96421018 5 8 C-0.41538462 8.36923077 -0.41538462 8.36923077 -3.375 6.5 C-3.91125 6.005 -4.4475 5.51 -5 5 C-4.67 4.34 -4.34 3.68 -4 3 C-2.515 3.99 -2.515 3.99 -1 5 C-0.67 3.35 -0.34 1.7 0 0 Z " fill="#947E58" transform="translate(69,40)"/>
<path d="M0 0 C1.21816406 0.03480469 1.21816406 0.03480469 2.4609375 0.0703125 C3.68683594 0.09738281 3.68683594 0.09738281 4.9375 0.125 C5.87722656 0.15980469 5.87722656 0.15980469 6.8359375 0.1953125 C6.8359375 1.1853125 6.8359375 2.1753125 6.8359375 3.1953125 C8.1559375 3.5253125 9.4759375 3.8553125 10.8359375 4.1953125 C0.27785094 4.564333 0.27785094 4.564333 -4.1640625 2.1953125 C-2.1640625 0.1953125 -2.1640625 0.1953125 0 0 Z " fill="#6D6C71" transform="translate(62.1640625,95.8046875)"/>
<path d="M0 0 C0.66 0 1.32 0 2 0 C2 0.66 2 1.32 2 2 C2.804375 2.268125 3.60875 2.53625 4.4375 2.8125 C5.7059375 3.4003125 5.7059375 3.4003125 7 4 C7.33 4.99 7.66 5.98 8 7 C5 9 5 9 2 9 C1.34 6.03 0.68 3.06 0 0 Z " fill="#7AA6CD" transform="translate(24,76)"/>
<path d="M0 0 C0.33 0.99 0.66 1.98 1 3 C1.99 3.33 2.98 3.66 4 4 C3.01 4 2.02 4 1 4 C0.67 6.31 0.34 8.62 0 11 C-0.99 11.33 -1.98 11.66 -3 12 C-3.33 9.36 -3.66 6.72 -4 4 C-3.01 3.67 -2.02 3.34 -1 3 C-0.67 2.01 -0.34 1.02 0 0 Z " fill="#504B41" transform="translate(61,81)"/>
<path d="M0 0 C0.99 0 1.98 0 3 0 C3.02698189 1.62490954 3.04638757 3.24994633 3.0625 4.875 C3.07410156 5.77992187 3.08570312 6.68484375 3.09765625 7.6171875 C3 10 3 10 2 12 C-0.97 11.505 -0.97 11.505 -4 11 C-3.34 10.484375 -2.68 9.96875 -2 9.4375 C0.65637543 6.20004245 0.31342132 4.07447719 0 0 Z " fill="#B5946D" transform="translate(75,35)"/>
<path d="M0 0 C0.33 0 0.66 0 1 0 C1.28875 1.11375 1.5775 2.2275 1.875 3.375 C2.69241329 7.00291092 2.69241329 7.00291092 5 9 C5 9.99 5 10.98 5 12 C4.38125 11.814375 3.7625 11.62875 3.125 11.4375 C0.95839822 10.76313824 0.95839822 10.76313824 -1 12 C-0.67 8.04 -0.34 4.08 0 0 Z " fill="#56392C" transform="translate(19,19)"/>
<path d="M0 0 C0.33 0 0.66 0 1 0 C1 2.64 1 5.28 1 8 C-2.3 8 -5.6 8 -9 8 C-9.33 7.01 -9.66 6.02 -10 5 C-7.03 5 -4.06 5 -1 5 C-0.67 3.35 -0.34 1.7 0 0 Z " fill="#4B494E" transform="translate(99,92)"/>
<path d="M0 0 C4.95 0.99 4.95 0.99 10 2 C7.23776722 4.76223278 4.79293383 4.57856291 1 5 C0.67 3.35 0.34 1.7 0 0 Z " fill="#AC835A" transform="translate(21,39)"/>
<path d="M0 0 C-1 2 -1 2 -4.25 3.125 C-7.37700635 3.85463482 -9.82622905 4.19234975 -13 4 C-13.33 3.34 -13.66 2.68 -14 2 C-9.126739 0.4087311 -5.19209404 -0.21192221 0 0 Z " fill="#B18860" transform="translate(44,53)"/>
<path d="M0 0 C3.96 0 7.92 0 12 0 C12 0.99 12 1.98 12 3 C12.66 3.33 13.32 3.66 14 4 C11.85270859 3.71926927 9.70716807 3.42511501 7.5625 3.125 C6.36753906 2.96257812 5.17257813 2.80015625 3.94140625 2.6328125 C2.97074219 2.42398438 2.00007813 2.21515625 1 2 C0.67 1.34 0.34 0.68 0 0 Z " fill="#404550" transform="translate(46,95)"/>
<path d="M0 0 C0 3.3 0 6.6 0 10 C-4 7 -4 7 -4.75 4.3125 C-4.8325 3.549375 -4.915 2.78625 -5 2 C-2 0 -2 0 0 0 Z " fill="#7D5B45" transform="translate(27,87)"/>
<path d="M0 0 C0.66 0.33 1.32 0.66 2 1 C2 2.98 2 4.96 2 7 C0.68 7.33 -0.64 7.66 -2 8 C-2.6875 5.6875 -2.6875 5.6875 -3 3 C-1.5625 1.1875 -1.5625 1.1875 0 0 Z " fill="#5B7591" transform="translate(55,70)"/>
<path d="M0 0 C-0.4640625 1.1446875 -0.4640625 1.1446875 -0.9375 2.3125 C-1.67893593 4.18789677 -2.36228217 6.08684652 -3 8 C-4.32 8 -5.64 8 -7 8 C-6.44414399 4.1090079 -4.34122117 0 0 0 Z " fill="#DE9992" transform="translate(75,7)"/>
<path d="M0 0 C-0.33 2.97 -0.66 5.94 -1 9 C-1.99 8.01 -2.98 7.02 -4 6 C-4 4.68 -4 3.36 -4 2 C-5.32 2.33 -6.64 2.66 -8 3 C-7.67 2.34 -7.34 1.68 -7 1 C-4.61370553 0.38812962 -2.46459429 0 0 0 Z " fill="#715341" transform="translate(37,82)"/>
<path d="M0 0 C2.64 0.66 5.28 1.32 8 2 C8 2.33 8 2.66 8 3 C6.35 3 4.7 3 3 3 C3.33 4.32 3.66 5.64 4 7 C2.35 6.67 0.7 6.34 -1 6 C-0.67 4.02 -0.34 2.04 0 0 Z " fill="#896548" transform="translate(19,29)"/>
<path d="M0 0 C2.00045613 0.26956501 3.98036247 0.68194312 5.953125 1.109375 C5.953125 1.439375 5.953125 1.769375 5.953125 2.109375 C3.973125 2.439375 1.993125 2.769375 -0.046875 3.109375 C0.613125 3.769375 1.273125 4.429375 1.953125 5.109375 C-0.686875 5.109375 -3.326875 5.109375 -6.046875 5.109375 C-3.15469741 0.16857162 -3.15469741 0.16857162 0 0 Z " fill="#383337" transform="translate(41.046875,94.890625)"/>
<path d="M0 0 C-2.31 1.32 -4.62 2.64 -7 4 C-7 5.98 -7 7.96 -7 10 C-7.66 10 -8.32 10 -9 10 C-9.43309718 4.71621441 -9.43309718 4.71621441 -9 2 C-5.9520574 -0.79394738 -3.87966931 -1.58060601 0 0 Z " fill="#6A4B3A" transform="translate(18,90)"/>
<path d="M0 0 C0.33 1.32 0.66 2.64 1 4 C-3.43076923 7.07692308 -3.43076923 7.07692308 -6.3125 6.6875 C-6.869375 6.460625 -7.42625 6.23375 -8 6 C-8 5.34 -8 4.68 -8 4 C-6.865625 3.71125 -5.73125 3.4225 -4.5625 3.125 C-3.386875 2.75375 -2.21125 2.3825 -1 2 C-0.67 1.34 -0.34 0.68 0 0 Z " fill="#AE8362" transform="translate(61,63)"/>
<path d="M0 0 C2 4 2 4 1.125 7.75 C0.75375 8.8225 0.3825 9.895 0 11 C-0.99 10.34 -1.98 9.68 -3 9 C-2.01 6.03 -1.02 3.06 0 0 Z " fill="#6080A0" transform="translate(19,56)"/>
<path d="M0 0 C0.66 0 1.32 0 2 0 C3.85776765 3.13498292 4.20140476 5.37471432 4 9 C3.01 9 2.02 9 1 9 C0.63877119 7.68942607 0.28619689 6.37646376 -0.0625 5.0625 C-0.35833984 3.96615234 -0.35833984 3.96615234 -0.66015625 2.84765625 C-0.77230469 2.23792969 -0.88445313 1.62820313 -1 1 C-0.67 0.67 -0.34 0.34 0 0 Z " fill="#7C5A44" transform="translate(62,12)"/>
<path d="M0 0 C0.99 0.33 1.98 0.66 3 1 C3 2.98 3 4.96 3 7 C1.35 7 -0.3 7 -2 7 C-1.34 4.69 -0.68 2.38 0 0 Z " fill="#362B21" transform="translate(45,40)"/>
<path d="M0 0 C7.48291572 6.15034169 7.48291572 6.15034169 10 10 C6.36044707 9.11033151 4.46353349 8.62337263 2.1875 5.5625 C1 3 1 3 0 0 Z " fill="#2D3D4E" transform="translate(16,65)"/>
<path d="M0 0 C3.875 4.75 3.875 4.75 5 7 C3.33388095 7.042721 1.66617115 7.04063832 0 7 C-1 6 -1 6 -1.125 3.5 C-1 1 -1 1 0 0 Z " fill="#936C4C" transform="translate(11,93)"/>
<path d="M0 0 C0.99 0.33 1.98 0.66 3 1 C2.34 3.31 1.68 5.62 1 8 C0.34 7.67 -0.32 7.34 -1 7 C-1.625 3.9375 -1.625 3.9375 -2 1 C-1.34 0.67 -0.68 0.34 0 0 Z " fill="#825F45" transform="translate(41,79)"/>
<path d="M0 0 C0.61875 0.474375 1.2375 0.94875 1.875 1.4375 C6.16105676 3.58052838 10.26600709 3.73342564 15 4 C15 4.33 15 4.66 15 5 C13.06280622 5.05406122 11.12518079 5.09282025 9.1875 5.125 C8.10855469 5.14820313 7.02960937 5.17140625 5.91796875 5.1953125 C3 5 3 5 0 3 C0 2.01 0 1.02 0 0 Z " fill="#2E2626" transform="translate(36,44)"/>
<path d="M0 0 C-1.65 0.66 -3.3 1.32 -5 2 C-4.67 2.99 -4.34 3.98 -4 5 C-5.98 5.99 -5.98 5.99 -8 7 C-6.53511706 1.38461538 -6.53511706 1.38461538 -4 -0.4375 C-2 -1 -2 -1 0 0 Z " fill="#54413D" transform="translate(69,61)"/>
<path d="M0 0 C0.99 0.33 1.98 0.66 3 1 C3.33 2.98 3.66 4.96 4 7 C2.68 6.67 1.36 6.34 0 6 C0 4.02 0 2.04 0 0 Z " fill="#2A1E1A" transform="translate(69,40)"/>
<path d="M0 0 C1.65 0 3.3 0 5 0 C5 0.99 5 1.98 5 3 C3.02 3.33 1.04 3.66 -1 4 C-0.67 2.68 -0.34 1.36 0 0 Z " fill="#A87F5B" transform="translate(26,2)"/>
<path d="M0 0 C2.4375 0.375 2.4375 0.375 5 1 C5.33 1.66 5.66 2.32 6 3 C5.34 3 4.68 3 4 3 C4 3.66 4 4.32 4 5 C3.01 4.67 2.02 4.34 1 4 C0.3125 1.9375 0.3125 1.9375 0 0 Z " fill="#52433C" transform="translate(20,58)"/>
<path d="M0 0 C-1.98 1.32 -3.96 2.64 -6 4 C-6 3.01 -6 2.02 -6 1 C-6.66 0.67 -7.32 0.34 -8 0 C-4.94736336 -0.98120464 -3.05263664 -0.98120464 0 0 Z " fill="#815F46" transform="translate(31,51)"/>
<path d="M0 0 C1.65 0 3.3 0 5 0 C5 0.99 5 1.98 5 3 C3.02 3 1.04 3 -1 3 C-0.67 2.01 -0.34 1.02 0 0 Z " fill="#B6B5BA" transform="translate(85,88)"/>
<path d="M0 0 C0.66 0 1.32 0 2 0 C4 3 4 3 4 6 C1 5 1 5 -0.1875 2.9375 C-0.5896875 1.9784375 -0.5896875 1.9784375 -1 1 C-0.67 0.67 -0.34 0.34 0 0 Z " fill="#9D7B63" transform="translate(24,56)"/>
<path d="M0 0 C2.64 0.33 5.28 0.66 8 1 C7.01 1.33 6.02 1.66 5 2 C5 2.66 5 3.32 5 4 C3.68 4 2.36 4 1 4 C0.67 2.68 0.34 1.36 0 0 Z " fill="#906A4C" transform="translate(17,46)"/>
<path d="M0 0 C0.33 0 0.66 0 1 0 C1 1.65 1 3.3 1 5 C2.98 5.495 2.98 5.495 5 6 C4.67 6.66 4.34 7.32 4 8 C2.68 7.67 1.36 7.34 0 7 C0 4.69 0 2.38 0 0 Z " fill="#E5ACA0" transform="translate(24,16)"/>
<path d="M0 0 C2 2 2 2 2 6 C1.34 6 0.68 6 0 6 C-0.33 6.99 -0.66 7.98 -1 9 C-1.125 2.25 -1.125 2.25 0 0 Z " fill="#997354" transform="translate(24,4)"/>
</svg>
